{"title":"Legend Of The Guardians 2010.DvDRip.H264.Feel-Free","uid":6013524,"size":896127275,"categoryP":"video","categoryS":"movies","magnet":"?xt=urn:btih:6350531a2df349e141ceb13c61faf10ffac5e51d&amp;dn=Legend+Of+The+Guardians+2010.DvDRip.H264.Feel-Free&amp;tr=udp%3A%2F%2Ftracker.openbittorrent.com%3A80&amp;tr=udp%3A%2F%2Fopen.demonii.com%3A1337&amp;tr=udp%3A%2F%2Ftracker.coppersurfer.tk%3A6969&amp;tr=udp%3A%2F%2Fexodus.desync.com%3A6969","seeders":0,"leechers":1,"uploader":"neon","files":-1,"time":1291545034,"description":"Genre:Animation | Adventure | Fantasy\nLanguage:English\n &lt;a href=&quot; http://www.imdb.com/title/tt1219342/&quot; rel=&quot;nofollow&quot; target=&quot;_NEW&quot;&gt; http://www.imdb.com/title/tt1219342/&lt;/a&gt;\nSource:DVD\nSubtitles:Romana\n\nFormat : MPEG-4\nFormat profile : Base Media / Version 2\nCodec ID : mp42\nFile size : 852 MiB\nDuration : 1h 36mn\nOverall bit rate : 1 230 Kbps\n\n\nVideo\nCodec ID : avc1\nCodec ID/Info : Advanced Video Coding\nDuration : 1h 36mn\nBit rate mode : Variable\nBit rate : 845 Kbps\nWidth : 720 pixels\nHeight : 304 pixels\nDisplay aspect ratio : 2.35:1\nFrame rate mode : Constant\nFrame rate : 23.976 fps\nColor space : YUV\nChroma subsampling : 4:2:0\nBit depth : 8 bits\nScan type : Progressive\nBits/(Pixel*Frame) : 0.161\nStream size : 585 MiB (69%)\nLanguage : English\n\nAudio\nID : 2\nFormat : AAC\nFormat/Info : Advanced Audio Codec\nFormat version : Version 4\nFormat profile : LC\nCodec ID : 40\nDuration : 1h 36mn\nBit rate mode : Constant\nBit rate : 384 Kbps\nChannel(s) : 6 channels\nChannel positions : Front: L C R, Side: L R, LFE\nSampling rate : 48.0 KHz\nStream size : 264 MiB (31%)\nLanguage : English\n\n\nPlot:\nSoren, a young barn owl, is kidnapped by owls of St. Aggie's, ostensibly an orphanage, where owlets are brainwashed into becoming soldiers. He and his new friends escape to the island of Ga'Hoole, to assist its noble, wise owls who fight the army being created by the wicked rulers of St. Aggie's. The film is based on the first three books in the series.\n\n","torrent":{"xt":"urn:btih:6350531a2df349e141ceb13c61faf10ffac5e51d","amp;dn":"Legend+Of+The+Guardians+2010.DvDRip.H264.Feel-Free","amp;tr":["udp%3A%2F%2Ftracker.openbittorrent.com%3A80","udp%3A%2F%2Fopen.demonii.com%3A1337","udp%3A%2F%2Ftracker.coppersurfer.tk%3A6969","udp%3A%2F%2Fexodus.desync.com%3A6969"],"infoHash":"6350531a2df349e141ceb13c61faf10ffac5e51d","infoHashBuffer":{"type":"Buffer","data":[99,80,83,26,45,243,73,225,65,206,177,60,97,250,241,15,250,197,229,29]},"announce":[],"urlList":[]}}